<svg width="600" height="132" viewBox="0 0 600 132" fill="none" xmlns="http://www.w3.org/2000/svg">
<path d="M0 95.543L27.885 67.6583C29.0446 66.5113 29.0446 64.6329 27.885 63.4748L0.0844118 35.6745L11.0896 24.6697L43.033 56.612C47.9881 61.5566 47.9881 69.5775 43.033 74.5322L11.1765 106.392L0 95.543ZM131.325 35.6745L103.441 63.5592C102.29 64.7162 102.29 66.5957 103.441 67.7442L131.24 95.543L120.235 106.559L88.2918 74.6156C83.3368 69.6605 83.3368 61.6414 88.2918 56.6964L120.151 24.8363L131.325 35.6745ZM35.6434 0L63.5277 27.8832C64.6887 29.0442 66.5535 29.0442 67.7127 27.8832L95.5141 0.0833378L106.53 11.0893L74.5884 43.033C69.6333 47.9881 61.6103 47.9881 56.6649 43.033L24.8052 11.1751L35.6434 0ZM95.6821 131.323L67.7971 103.44C66.6369 102.29 64.7606 102.29 63.6114 103.44L35.8133 131.239L24.797 120.234L56.7375 88.2904C61.6933 83.3353 69.7163 83.3353 74.6603 88.2904L106.53 120.151L95.6821 131.323Z" fill="#8B3CF8"/>
<path d="M172.247 93.3564L173.167 94.488C174.595 96.522 177.11 98.629 180.716 100.811C182.476 101.961 184.793 102.928 187.655 103.714C190.516 104.5 193.535 104.886 196.733 104.886C202.98 104.886 208.872 103.083 214.374 99.4756C217.236 97.6436 219.553 95.0431 221.313 91.6793C223.085 88.313 223.965 84.4256 223.965 79.992C223.965 75.577 223.107 71.8474 221.365 68.8291C219.626 65.8 217.476 63.6716 214.887 62.4552C212.298 61.2298 209.48 60.1905 206.417 59.34C203.356 58.4919 200.539 57.8635 197.949 57.4422C195.371 57.0459 193.211 56.2601 191.482 55.1056C189.74 53.9436 188.882 52.4332 188.882 50.5569C188.882 48.692 189.614 47.2235 191.061 46.1848C192.53 45.1276 194.364 44.6025 196.575 44.6025C198.786 44.6025 200.6 45.0418 202.037 45.9223C202.508 46.2582 203.031 46.7084 203.618 47.256C204.195 47.7911 204.583 48.1255 204.784 48.2707C206.901 49.6334 208.662 50.3147 210.087 50.3147C212.549 50.3147 214.93 48.6162 217.236 45.212C218.872 42.82 219.677 40.9562 219.677 39.5924C219.677 38.2398 218.62 36.5741 216.524 34.6034L213.975 32.6527C212.676 31.574 210.35 30.5039 206.985 29.4567C203.618 28.3969 199.897 27.8744 195.81 27.8744C188.127 27.8744 182.057 30.0951 177.603 34.5505C173.148 39.0044 170.924 44.2266 170.924 50.211C170.924 54.5605 171.785 58.2827 173.524 61.3851C175.265 64.4788 177.413 66.741 180.002 68.1656C182.581 69.5937 185.38 70.8302 188.366 71.8878C191.366 72.9375 194.144 73.7022 196.733 74.1739C199.313 74.6546 201.48 75.4218 203.201 76.4791C204.94 77.5392 205.8 78.8375 205.8 80.4108C205.8 85.5686 202.644 88.1578 196.312 88.1578C194.826 88.1578 193.188 87.6316 191.428 86.5744C189.647 85.5146 188.294 84.4256 187.352 83.2635C183.943 79.8658 181.282 78.1561 179.396 78.1561C177.487 78.1561 175.684 78.9748 173.985 80.609C171.05 83.4731 169.594 85.7568 169.594 87.4968C169.594 89.2254 170.476 91.1771 172.247 93.3564ZM275.897 28.1759C271.199 28.1759 266.638 29.1323 262.227 31.04C257.802 32.9263 253.892 35.5573 250.486 38.8896C247.088 42.2245 244.376 46.354 242.332 51.2811C240.298 56.2058 239.269 61.4999 239.269 67.1409C239.269 77.4859 242.897 86.3938 250.129 93.871C257.372 101.344 266.169 105.097 276.502 105.097C286.84 105.097 295.551 101.301 302.616 93.7133C309.7 86.1341 313.234 76.9623 313.234 66.1749C313.234 55.4007 309.534 46.3655 302.111 39.0903C294.7 31.8047 285.959 28.1759 275.897 28.1759ZM263.189 81.3733C259.28 77.6007 257.321 72.685 257.321 66.6362C257.321 60.5878 259.27 55.6721 263.139 51.8995C267.017 48.1155 271.367 46.2392 276.211 46.2392C281.032 46.2392 285.393 48.1055 289.314 51.8452C293.224 55.5774 295.173 60.5474 295.173 66.741C295.173 72.9271 293.235 77.8532 289.365 81.521C285.487 85.2003 281.137 87.0361 276.293 87.0361C271.472 87.0361 267.11 85.1613 263.189 81.3733ZM381.284 29.8136C379.985 30.2099 379.02 31.0075 378.371 32.2021C377.722 33.3884 377.396 35.2848 377.396 37.8724V72.3495C372.574 66.0815 362.983 53.1979 348.631 33.681C347.344 32.1191 346.558 31.2267 346.284 31.04C345.813 30.5568 344.974 30.138 343.789 29.7596C342.595 29.3708 340.981 29.1931 338.937 29.1931C336.903 29.1931 335.236 29.4037 333.945 29.8136C332.647 30.2099 331.684 31.0075 331.034 32.2021C330.393 33.3884 330.067 35.2848 330.067 37.8724V94.7809C330.067 96.3528 330.112 97.5388 330.215 98.3554C330.321 99.1741 330.634 100.096 331.191 101.114C332.145 102.957 334.732 103.869 338.937 103.869C343.286 103.869 345.939 102.957 346.893 101.114C347.448 100.096 347.762 99.2159 347.868 98.4627C347.972 97.7155 348.026 96.522 348.026 94.8879V61.3346C352.845 67.5915 362.919 80.923 378.223 101.323C378.904 102.214 379.756 102.852 380.773 103.252C381.79 103.66 383.622 103.869 386.274 103.869C390.626 103.869 393.277 102.957 394.229 101.114C394.774 100.096 395.091 99.2159 395.196 98.4627C395.301 97.7155 395.352 96.522 395.352 94.8879V38.2727C395.352 35.8917 395.143 34.1642 394.745 33.0716C394.472 32.1191 394.052 31.4049 393.476 30.9356C392.888 30.4521 392.008 30.0422 390.825 29.7063C389.628 29.3633 388.066 29.1931 386.129 29.1931C384.177 29.1931 382.574 29.4037 381.284 29.8136ZM413.717 38.0631V94.7809C413.717 97.1604 413.926 98.9015 414.335 99.9917C415.142 102.571 417.941 103.869 422.691 103.869C427.053 103.869 429.703 102.957 430.659 101.114C431.193 100.096 431.518 99.2159 431.623 98.4627C431.726 97.7155 431.777 96.522 431.777 94.8879V38.1664C431.777 35.7984 431.611 34.0269 431.264 32.862C430.385 30.3476 427.553 29.0894 422.797 29.0894C418.446 29.0894 415.791 30.0018 414.839 31.8451C414.295 32.862 413.981 33.7643 413.876 34.5505C413.772 35.3363 413.717 36.5012 413.717 38.0631ZM496.862 84.2779C496.035 84.8254 494.706 85.3809 492.837 85.9145C490.951 86.4596 488.971 86.7296 486.864 86.7296C482.367 86.7296 478.059 85.2332 473.919 82.2353C471.801 80.6734 470.071 78.546 468.696 75.8077C467.333 73.0927 466.662 70.0229 466.662 66.5844C466.662 63.1455 467.333 60.0757 468.696 57.3388C470.071 54.6249 471.77 52.5165 473.814 51.0301C478.089 47.9563 482.449 46.4273 486.864 46.4273C491.622 46.4273 495.438 47.5919 498.29 49.907C500.534 51.3945 502.272 52.1402 503.489 52.1402C505.605 52.1402 507.986 50.3147 510.637 46.6366C512.061 44.6669 512.777 42.7881 512.777 40.9766C512.777 39.1733 511.895 37.5584 510.124 36.1324C509.443 35.6506 508.488 35.0437 507.262 34.2905L504.819 32.862C503.121 31.8451 500.617 30.8383 497.314 29.854C494.023 28.8687 490.773 28.3855 487.586 28.3855C480.837 28.3855 474.149 30.2099 467.481 33.8792C463.94 35.7984 460.794 38.1564 458.049 40.9766C455.291 43.8053 453.026 47.3683 451.266 51.69C449.483 56.0076 448.614 60.8185 448.614 66.1244C448.614 71.4271 449.516 76.3417 451.318 80.8726C453.111 85.3884 455.406 89.0891 458.194 91.9922C460.982 94.8778 464.127 97.3192 467.629 99.3318C471.13 101.334 474.535 102.759 477.839 103.609C481.13 104.469 484.39 104.886 487.619 104.886C490.868 104.886 494.211 104.342 497.671 103.252C501.151 102.171 503.437 101.28 504.559 100.599C505.68 99.9187 506.864 99.2159 508.09 98.4627C509.306 97.7155 510.377 96.8679 511.286 95.9126C512.22 94.9601 512.671 93.7662 512.671 92.3381C512.671 90.9135 511.927 89.0058 510.427 86.6263C507.986 82.8118 505.699 80.923 503.594 80.923C502.64 80.923 501.003 81.5943 498.688 82.957L496.862 84.2779ZM570.713 34.3938C568.952 30.8598 566.236 29.0894 562.558 29.0894C560.858 29.0894 559.243 29.5729 557.714 30.5239C556.184 31.4692 555.04 32.7361 554.297 34.2905L526.749 91.3209C525.595 93.64 525.011 95.3675 525.011 96.522C525.011 98.9648 526.99 101.154 530.932 103.061C533.248 104.205 535.063 104.783 536.393 104.783C537.714 104.783 538.802 104.469 539.665 103.819C540.512 103.178 541.11 102.549 541.487 101.932C541.875 101.323 542.399 100.328 543.07 98.9648L548.386 87.9485H576.635L581.941 98.9648C582.619 100.328 583.146 101.344 583.52 102.026C583.899 102.718 584.516 103.358 585.367 103.974C586.214 104.583 587.297 104.886 588.616 104.886C589.948 104.886 591.772 104.309 594.077 103.147C598.03 101.175 600 98.9648 600 96.522C600 95.3675 599.423 93.64 598.261 91.3209L570.713 34.3938ZM562.453 58.8893L569.288 72.8542H555.723L562.453 58.8893Z" fill="#444444"/>
</svg>
